<svg width="480" height="465" viewBox="0 0 480 465" fill="none" xmlns="http://www.w3.org/2000/svg">
<path d="M182.821 163.269C61.4216 100.956 -38.6181 180.175 -36.7286 129.891C-34.839 79.6066 212.34 -198.235 212.34 -198.235L645.066 130.232C559.896 187.459 506.808 94.9068 395.074 175.194C283.339 255.482 304.221 225.582 182.821 163.269Z" fill="#164537"/>
<path d="M135.576 147.193C17.9445 86.2068 -77.5382 160.911 -76.2772 112.807C-75.0161 64.7041 159.991 -198.455 159.991 -198.455L580.467 120.714C499.063 174.536 446.897 85.369 340.161 160.966C233.425 236.562 253.207 208.179 135.576 147.193Z" fill="#06513A"/>
<path d="M240.88 73.6043C179.526 27.0325 42.3312 27.29 -18.5967 33.2402L179.491 -227.723L550.172 53.6486C351.437 172.14 317.572 131.819 240.88 73.6043Z" fill="#036345"/>
</svg>
