<svg width="1507" height="1111" viewBox="0 0 1507 1111" fill="none" xmlns="http://www.w3.org/2000/svg">
<path d="M555.871 798.261C188.838 863.177 102.013 1200.74 23.0809 1088.22C-55.8511 975.7 23.0809 -37 23.0809 -37H1507C1416.21 228.162 1147.86 114.472 1037.36 473.678C926.851 832.883 922.904 733.344 555.871 798.261Z" fill="#164537"/>
<path d="M539.796 756.334C183.153 817.914 98.7853 1138.13 22.0878 1031.39C-54.6097 924.653 22.0878 -36 22.0878 -36H1464C1375.78 215.534 1115.03 107.687 1007.65 448.432C900.274 789.176 896.439 694.753 539.796 756.334Z" fill="#06513B"/>
<path d="M572.959 490.071C378.972 490.071 104.159 714.69 -9 827V-58H1163C944.766 521.518 815.441 490.071 572.959 490.071Z" fill="#036345"/>
</svg>
