<svg width="122" height="120" viewBox="0 0 122 120" fill="none" xmlns="http://www.w3.org/2000/svg">
<ellipse cx="60.9111" cy="60" rx="60.9111" ry="60" fill="#E9E9E9"/>
<ellipse cx="60.9107" cy="60.0007" rx="51.4361" ry="50.6667" fill="#00AA7F"/>
<path d="M61 41C67.8956 41 74.5088 43.7393 79.3848 48.6152C84.2607 53.4912 87 60.1044 87 67C87 68.0609 86.5786 69.0783 85.8284 69.8284C85.0783 70.5786 84.0609 71 83 71H39C37.9391 71 36.9217 70.5786 36.1716 69.8284C35.4214 69.0783 35 68.0609 35 67C35 60.1044 37.7393 53.4912 42.6152 48.6152C47.4912 43.7393 54.1044 41 61 41ZM61 41V35M35 79H87" stroke="white" stroke-width="4" stroke-linecap="round" stroke-linejoin="round"/>
</svg>
