<svg width="122" height="120" viewBox="0 0 122 120" fill="none" xmlns="http://www.w3.org/2000/svg">
<ellipse cx="60.9111" cy="60" rx="60.9111" ry="60" fill="#E9E9E9"/>
<ellipse cx="60.9107" cy="60.0007" rx="51.4361" ry="50.6667" fill="#00AA7F"/>
<path d="M67.1947 63.3295C66.3106 63.3295 65.4628 63.6806 64.8376 64.3058C64.2125 64.9309 63.8613 65.7787 63.8613 66.6628H66.528C66.528 66.486 66.5982 66.3164 66.7233 66.1914C66.8483 66.0664 67.0179 65.9961 67.1947 65.9961H67.308C67.7387 65.9961 68.0867 66.3455 68.0867 66.7748V77.4081C68.0867 77.7617 68.2271 78.1009 68.4772 78.3509C68.7272 78.601 69.0664 78.7415 69.42 78.7415C69.7736 78.7415 70.1128 78.601 70.3628 78.3509C70.6129 78.1009 70.7533 77.7617 70.7533 77.4081V66.7735C70.7533 65.8597 70.3903 64.9834 69.7442 64.3372C69.0981 63.6911 68.2218 63.3281 67.308 63.3281L67.1947 63.3295Z" fill="white"/>
<path d="M52.909 67.8598L52.9997 68.0265V75.9998C52.9997 76.7071 53.2806 77.3854 53.7807 77.8855C54.2808 78.3856 54.9591 78.6665 55.6663 78.6665C56.3736 78.6665 57.0519 78.3856 57.552 77.8855C58.0521 77.3854 58.333 76.7071 58.333 75.9998V67.3332C58.333 64.4025 59.0143 61.5892 59.9063 59.2345L60.193 60.3665C60.3175 60.856 60.5785 61.3001 60.9455 61.6471C61.3126 61.9941 61.7706 62.2297 62.2663 62.3265L67.1543 63.2838C67.8485 63.4196 68.5682 63.2741 69.155 62.8793C69.7419 62.4845 70.1479 61.8727 70.2837 61.1785C70.4195 60.4843 70.2739 59.7647 69.8791 59.1778C69.4843 58.5909 68.8725 58.185 68.1783 58.0492L64.9463 57.4172L63.4063 51.3438C63.2605 50.7691 62.9272 50.2594 62.4592 49.8952C61.9913 49.5311 61.4153 49.3333 60.8223 49.3332C56.8223 49.3332 54.1383 51.7958 52.5903 54.2398C51.077 56.6292 50.333 59.4532 50.333 61.3332C50.333 61.8718 50.4557 62.3732 50.5503 62.7065C50.657 63.0798 50.7957 63.4625 50.941 63.8238C51.2303 64.5465 51.5997 65.3305 51.9477 66.0252C52.2997 66.7292 52.6503 67.3852 52.909 67.8598ZM68.333 51.9998C68.9458 51.9998 69.5527 51.8791 70.1189 51.6446C70.685 51.4101 71.1995 51.0663 71.6328 50.633C72.0662 50.1997 72.4099 49.6852 72.6444 49.119C72.879 48.5528 72.9997 47.946 72.9997 47.3332C72.9997 46.7203 72.879 46.1135 72.6444 45.5473C72.4099 44.9811 72.0662 44.4667 71.6328 44.0333C71.1995 43.6 70.685 43.2563 70.1189 43.0217C69.5527 42.7872 68.9458 42.6665 68.333 42.6665C67.0953 42.6665 65.9083 43.1582 65.0332 44.0333C64.158 44.9085 63.6663 46.0955 63.6663 47.3332C63.6663 48.5708 64.158 49.7578 65.0332 50.633C65.9083 51.5082 67.0953 51.9998 68.333 51.9998Z" fill="white"/>
<path fill-rule="evenodd" clip-rule="evenodd" d="M37 40C37 38.9391 37.4214 37.9217 38.1716 37.1716C38.9217 36.4214 39.9391 36 41 36H81C82.0609 36 83.0783 36.4214 83.8284 37.1716C84.5786 37.9217 85 38.9391 85 40V80C85 81.0609 84.5786 82.0783 83.8284 82.8284C83.0783 83.5786 82.0609 84 81 84H41C39.9391 84 38.9217 83.5786 38.1716 82.8284C37.4214 82.0783 37 81.0609 37 80V40ZM39.6667 40C39.6667 39.6464 39.8071 39.3072 40.0572 39.0572C40.3072 38.8071 40.6464 38.6667 41 38.6667H81C81.3536 38.6667 81.6928 38.8071 81.9428 39.0572C82.1929 39.3072 82.3333 39.6464 82.3333 40V80C82.3333 80.3536 82.1929 80.6928 81.9428 80.9428C81.6928 81.1929 81.3536 81.3333 81 81.3333H41C40.6464 81.3333 40.3072 81.1929 40.0572 80.9428C39.8071 80.6928 39.6667 80.3536 39.6667 80V40Z" fill="white"/>
</svg>
